<svg width="22" height="22" viewBox="0 0 22 22" fill="none" xmlns="http://www.w3.org/2000/svg">
<path d="M11.9168 17.4165C11.9168 17.7282 11.9535 18.0307 11.9993 18.3332H3.66683C2.6585 18.3332 1.8335 17.5173 1.8335 16.4998V5.49984C1.8335 4.48234 2.64933 3.6665 3.66683 3.6665H9.16683L11.0002 5.49984H18.3335C19.3418 5.49984 20.1668 6.31567 20.1668 7.33317V12.659C19.6077 12.3382 18.9935 12.1182 18.3335 11.999V7.33317H3.66683V16.4998H11.9993C11.9535 16.8023 11.9168 17.1048 11.9168 17.4165ZM18.3335 16.4998V13.7498H16.5002V16.4998H13.7502V18.3332H16.5002V21.0832H18.3335V18.3332H21.0835V16.4998H18.3335Z" fill="black"/>
</svg>
