<svg width="24" height="24" viewBox="0 0 24 24" fill="none" xmlns="http://www.w3.org/2000/svg">
<path d="M9.29 3.25012L5.16 6.72012L4 5.34012L8.14 1.87012L9.29 3.25012ZM22 5.35012L20.84 6.73012L16.7 3.25012L17.86 1.87012L22 5.35012ZM13 4.00012C15.1217 4.00012 17.1566 4.84297 18.6569 6.34326C20.1571 7.84355 21 9.87839 21 12.0001C21 14.1218 20.1571 16.1567 18.6569 17.657C17.1566 19.1573 15.1217 20.0001 13 20.0001C10.8783 20.0001 8.84344 19.1573 7.34315 17.657C5.84285 16.1567 5 14.1218 5 12.0001C5 9.87839 5.84285 7.84355 7.34315 6.34326C8.84344 4.84297 10.8783 4.00012 13 4.00012ZM13 6.00012C11.4087 6.00012 9.88258 6.63226 8.75736 7.75748C7.63214 8.8827 7 10.4088 7 12.0001C7 13.5914 7.63214 15.1175 8.75736 16.2428C9.88258 17.368 11.4087 18.0001 13 18.0001C14.5913 18.0001 16.1174 17.368 17.2426 16.2428C18.3679 15.1175 19 13.5914 19 12.0001C19 10.4088 18.3679 8.8827 17.2426 7.75748C16.1174 6.63226 14.5913 6.00012 13 6.00012ZM12 7.50012H13.5V12.0301L16.72 13.5001L16.1 14.8601L12 13.0001V7.50012ZM1 14.0001C1 11.5001 2.13 9.30012 3.91 7.83012C3.33 9.10012 3 10.5001 3 12.0001L3.06 13.1301L3 14.0001C3 16.2801 4.27 18.2601 6.14 19.2801C7.44 20.5001 9.07 21.3901 10.89 21.7801C10.28 21.9201 9.65 22.0001 9 22.0001C6.87827 22.0001 4.84344 21.1573 3.34315 19.657C1.84285 18.1567 1 16.1218 1 14.0001Z" fill="black"/>
</svg>
