<svg width="34" height="17" viewBox="0 0 34 17" fill="none" xmlns="http://www.w3.org/2000/svg">
<path d="M33.7734 5.74745C34.0755 5.44527 34.0755 4.94164 33.7734 4.65495L31.9603 2.84187C31.6736 2.53969 31.17 2.53969 30.8678 2.84187L29.4421 4.25979L32.3477 7.16537M20.0513 13.6584V16.564H22.9568L31.5264 7.98668L28.6208 5.0811L20.0513 13.6584Z" fill="black"/>
<path d="M16.1283 13.9487C15.7815 13.9487 15.4489 14.0865 15.2037 14.3317C14.9584 14.577 14.8207 14.9096 14.8207 15.2564C14.8207 15.6032 14.9584 15.9358 15.2037 16.1811C15.4489 16.4263 15.7815 16.5641 16.1283 16.5641C16.4752 16.5641 16.8078 16.4263 17.053 16.1811C17.2983 15.9358 17.436 15.6032 17.436 15.2564C17.436 14.9096 17.2983 14.577 17.053 14.3317C16.8078 14.0865 16.4752 13.9487 16.1283 13.9487ZM11.7694 11.3333C11.1913 11.3333 10.637 11.563 10.2282 11.9717C9.81951 12.3804 9.58988 12.9348 9.58988 13.5128C9.58988 14.0909 9.81951 14.6452 10.2282 15.054C10.637 15.4627 11.1913 15.6923 11.7694 15.6923C12.3474 15.6923 12.9018 15.4627 13.3105 15.054C13.7192 14.6452 13.9489 14.0909 13.9489 13.5128C13.9489 12.9348 13.7192 12.3804 13.3105 11.9717C12.9018 11.563 12.3474 11.3333 11.7694 11.3333ZM6.5386 10.4615C7.57604 10.4615 8.51757 10.0256 9.15398 9.28462C9.79039 10.0256 10.7319 10.4615 11.7694 10.4615C13.4781 10.4615 14.8991 9.23231 15.1955 7.61949C16.5032 7.11385 17.436 5.84103 17.436 4.35897C17.436 3.43412 17.0686 2.54714 16.4147 1.89317C15.7607 1.23919 14.8737 0.871795 13.9489 0.871795L13.2776 0.932821C12.6412 0.357436 11.813 0 10.8976 0C9.86014 0 8.9186 0.435897 8.28219 1.17692C7.64578 0.435897 6.70424 0 5.6668 0C3.95809 0 2.53706 1.22923 2.24065 2.84205C0.932958 3.34769 0.000137568 4.62051 0.000137568 6.10256C0.000137568 7.02742 0.367536 7.9144 1.02151 8.56837C1.67548 9.22235 2.56246 9.58974 3.48732 9.58974L4.1586 9.52872C4.79501 10.1041 5.62321 10.4615 6.5386 10.4615ZM13.9489 2.61538C14.4113 2.61538 14.8548 2.79908 15.1818 3.12607C15.5087 3.45306 15.6924 3.89655 15.6924 4.35897C15.6924 4.8214 15.5087 5.26489 15.1818 5.59188C14.8548 5.91886 14.4113 6.10256 13.9489 6.10256C13.6612 6.10256 13.3909 6.03282 13.1468 5.91077C13.3735 6.20718 13.513 6.57333 13.513 6.97436C13.513 7.43679 13.3293 7.88028 13.0023 8.20726C12.6753 8.53425 12.2318 8.71795 11.7694 8.71795C11.2463 8.71795 10.7755 8.48256 10.4617 8.11641L9.18014 6.6518L7.84629 8.14256C7.51501 8.49128 7.05296 8.71795 6.5386 8.71795C5.6668 8.71795 4.94321 8.07282 4.79501 7.2359C4.4986 7.61077 4.01911 7.84615 3.48732 7.84615C3.02489 7.84615 2.5814 7.66245 2.25441 7.33547C1.92743 7.00848 1.74373 6.56499 1.74373 6.10256C1.74373 5.64014 1.92743 5.19665 2.25441 4.86966C2.5814 4.54267 3.02489 4.35897 3.48732 4.35897C3.77501 4.35897 4.04527 4.42872 4.28937 4.55077C4.0627 4.25436 3.92321 3.88821 3.92321 3.48718C3.92321 3.02475 4.10691 2.58126 4.4339 2.25428C4.76089 1.92729 5.20438 1.74359 5.6668 1.74359C6.18116 1.74359 6.64321 1.97026 6.9745 2.31897L8.30834 3.80974L9.58988 2.34513C9.90373 1.97897 10.3745 1.74359 10.8976 1.74359C11.7694 1.74359 12.493 2.38872 12.6412 3.22564C12.9376 2.85077 13.4171 2.61538 13.9489 2.61538ZM11.7694 12.641C12.0006 12.641 12.2223 12.7329 12.3858 12.8964C12.5493 13.0599 12.6412 13.2816 12.6412 13.5128C12.6412 13.744 12.5493 13.9658 12.3858 14.1293C12.2223 14.2928 12.0006 14.3846 11.7694 14.3846C11.5382 14.3846 11.3164 14.2928 11.1529 14.1293C10.9894 13.9658 10.8976 13.744 10.8976 13.5128C10.8976 13.2816 10.9894 13.0599 11.1529 12.8964C11.3164 12.7329 11.5382 12.641 11.7694 12.641Z" fill="black"/>
</svg>
